<mxfile host="app.diagrams.net" modified="2020-05-19T06:16:54.600Z" agent="5.0 (Windows)" etag="0aIFtdFpmiQe3BFcqUov" version="13.1.2" type="github">
  <diagram id="bmLxF5NHHbLqdTSqwjN1" name="Page-1">
    <mxGraphModel dx="1231" dy="806" grid="1" gridSize="10" guides="1" tooltips="1" connect="1" arrows="1" fold="1" page="1" pageScale="1" pageWidth="1169" pageHeight="826" math="0" shadow="0">
      <root>
        <mxCell id="0" />
        <mxCell id="1" parent="0" />
        <mxCell id="Y69mmydfdGmCzMNUpoow-1" value="Apply For CBAP Process" style="text;html=1;align=center;verticalAlign=middle;resizable=0;points=[];autosize=1;fontSize=18;fontStyle=1" vertex="1" parent="1">
          <mxGeometry x="850" y="16" width="230" height="30" as="geometry" />
        </mxCell>
        <mxCell id="Y69mmydfdGmCzMNUpoow-2" value="Kalpesh Patil" style="text;html=1;align=center;verticalAlign=middle;resizable=0;points=[];autosize=1;fontSize=18;" vertex="1" parent="1">
          <mxGeometry x="960" y="60" width="120" height="30" as="geometry" />
        </mxCell>
        <mxCell id="Y69mmydfdGmCzMNUpoow-24" value="" style="edgeStyle=orthogonalEdgeStyle;rounded=0;orthogonalLoop=1;jettySize=auto;html=1;fontSize=18;" edge="1" parent="1" source="Y69mmydfdGmCzMNUpoow-3" target="Y69mmydfdGmCzMNUpoow-4">
          <mxGeometry relative="1" as="geometry" />
        </mxCell>
        <mxCell id="Y69mmydfdGmCzMNUpoow-3" value="Start" style="strokeWidth=2;html=1;shape=mxgraph.flowchart.start_1;whiteSpace=wrap;fontSize=18;" vertex="1" parent="1">
          <mxGeometry x="155" y="143" width="100" height="60" as="geometry" />
        </mxCell>
        <mxCell id="Y69mmydfdGmCzMNUpoow-6" value="" style="edgeStyle=orthogonalEdgeStyle;rounded=0;orthogonalLoop=1;jettySize=auto;html=1;fontSize=18;" edge="1" parent="1" source="Y69mmydfdGmCzMNUpoow-4" target="Y69mmydfdGmCzMNUpoow-5">
          <mxGeometry relative="1" as="geometry" />
        </mxCell>
        <mxCell id="Y69mmydfdGmCzMNUpoow-4" value="Read HandBook" style="rounded=1;whiteSpace=wrap;html=1;absoluteArcSize=1;arcSize=14;strokeWidth=2;fontSize=18;" vertex="1" parent="1">
          <mxGeometry x="155" y="263" width="100" height="100" as="geometry" />
        </mxCell>
        <mxCell id="Y69mmydfdGmCzMNUpoow-15" value="" style="edgeStyle=orthogonalEdgeStyle;rounded=0;orthogonalLoop=1;jettySize=auto;html=1;fontSize=18;" edge="1" parent="1" source="Y69mmydfdGmCzMNUpoow-13" target="Y69mmydfdGmCzMNUpoow-14">
          <mxGeometry relative="1" as="geometry" />
        </mxCell>
        <mxCell id="Y69mmydfdGmCzMNUpoow-13" value="Determine Eligibility (Hours)" style="rounded=1;whiteSpace=wrap;html=1;absoluteArcSize=1;arcSize=14;strokeWidth=2;fontSize=18;" vertex="1" parent="1">
          <mxGeometry x="155" y="473" width="100" height="100" as="geometry" />
        </mxCell>
        <mxCell id="Y69mmydfdGmCzMNUpoow-17" value="" style="edgeStyle=orthogonalEdgeStyle;rounded=0;orthogonalLoop=1;jettySize=auto;html=1;fontSize=18;" edge="1" parent="1" source="Y69mmydfdGmCzMNUpoow-14" target="Y69mmydfdGmCzMNUpoow-16">
          <mxGeometry relative="1" as="geometry" />
        </mxCell>
        <mxCell id="Y69mmydfdGmCzMNUpoow-14" value="Calculate Knowledge Area Percentages" style="rounded=1;whiteSpace=wrap;html=1;absoluteArcSize=1;arcSize=14;strokeWidth=2;fontSize=18;" vertex="1" parent="1">
          <mxGeometry x="335" y="473" width="110" height="100" as="geometry" />
        </mxCell>
        <mxCell id="Y69mmydfdGmCzMNUpoow-19" value="" style="edgeStyle=orthogonalEdgeStyle;rounded=0;orthogonalLoop=1;jettySize=auto;html=1;fontSize=18;" edge="1" parent="1" source="Y69mmydfdGmCzMNUpoow-16" target="Y69mmydfdGmCzMNUpoow-18">
          <mxGeometry relative="1" as="geometry" />
        </mxCell>
        <mxCell id="Y69mmydfdGmCzMNUpoow-16" value="Determine Eligibility (Knowledge Areas)" style="rounded=1;whiteSpace=wrap;html=1;absoluteArcSize=1;arcSize=14;strokeWidth=2;fontSize=18;" vertex="1" parent="1">
          <mxGeometry x="525" y="473" width="110" height="100" as="geometry" />
        </mxCell>
        <mxCell id="Y69mmydfdGmCzMNUpoow-21" value="" style="edgeStyle=orthogonalEdgeStyle;rounded=0;orthogonalLoop=1;jettySize=auto;html=1;fontSize=18;" edge="1" parent="1" source="Y69mmydfdGmCzMNUpoow-18" target="Y69mmydfdGmCzMNUpoow-20">
          <mxGeometry relative="1" as="geometry" />
        </mxCell>
        <mxCell id="Y69mmydfdGmCzMNUpoow-18" value="Complete Application" style="rounded=1;whiteSpace=wrap;html=1;absoluteArcSize=1;arcSize=14;strokeWidth=2;fontSize=18;" vertex="1" parent="1">
          <mxGeometry x="715" y="473" width="110" height="100" as="geometry" />
        </mxCell>
        <mxCell id="Y69mmydfdGmCzMNUpoow-25" value="" style="edgeStyle=orthogonalEdgeStyle;rounded=0;orthogonalLoop=1;jettySize=auto;html=1;fontSize=18;" edge="1" parent="1" source="Y69mmydfdGmCzMNUpoow-20" target="Y69mmydfdGmCzMNUpoow-22">
          <mxGeometry relative="1" as="geometry" />
        </mxCell>
        <mxCell id="Y69mmydfdGmCzMNUpoow-20" value="Submit Application" style="rounded=1;whiteSpace=wrap;html=1;absoluteArcSize=1;arcSize=14;strokeWidth=2;fontSize=18;" vertex="1" parent="1">
          <mxGeometry x="905" y="473" width="110" height="100" as="geometry" />
        </mxCell>
        <mxCell id="Y69mmydfdGmCzMNUpoow-8" value="" style="edgeStyle=orthogonalEdgeStyle;rounded=0;orthogonalLoop=1;jettySize=auto;html=1;fontSize=18;" edge="1" parent="1" source="Y69mmydfdGmCzMNUpoow-5" target="Y69mmydfdGmCzMNUpoow-7">
          <mxGeometry relative="1" as="geometry" />
        </mxCell>
        <mxCell id="Y69mmydfdGmCzMNUpoow-5" value="Document Work Experience" style="rounded=1;whiteSpace=wrap;html=1;absoluteArcSize=1;arcSize=14;strokeWidth=2;fontSize=18;" vertex="1" parent="1">
          <mxGeometry x="335" y="263" width="100" height="100" as="geometry" />
        </mxCell>
        <mxCell id="Y69mmydfdGmCzMNUpoow-10" value="" style="edgeStyle=orthogonalEdgeStyle;rounded=0;orthogonalLoop=1;jettySize=auto;html=1;fontSize=18;" edge="1" parent="1" source="Y69mmydfdGmCzMNUpoow-7" target="Y69mmydfdGmCzMNUpoow-9">
          <mxGeometry relative="1" as="geometry" />
        </mxCell>
        <mxCell id="Y69mmydfdGmCzMNUpoow-7" value="Align Tasks" style="rounded=1;whiteSpace=wrap;html=1;absoluteArcSize=1;arcSize=14;strokeWidth=2;fontSize=18;" vertex="1" parent="1">
          <mxGeometry x="515" y="263" width="100" height="100" as="geometry" />
        </mxCell>
        <mxCell id="Y69mmydfdGmCzMNUpoow-12" value="" style="edgeStyle=orthogonalEdgeStyle;rounded=0;orthogonalLoop=1;jettySize=auto;html=1;fontSize=18;" edge="1" parent="1" source="Y69mmydfdGmCzMNUpoow-9" target="Y69mmydfdGmCzMNUpoow-11">
          <mxGeometry relative="1" as="geometry" />
        </mxCell>
        <mxCell id="Y69mmydfdGmCzMNUpoow-9" value="Determine Project Hours" style="rounded=1;whiteSpace=wrap;html=1;absoluteArcSize=1;arcSize=14;strokeWidth=2;fontSize=18;" vertex="1" parent="1">
          <mxGeometry x="695" y="263" width="100" height="100" as="geometry" />
        </mxCell>
        <mxCell id="Y69mmydfdGmCzMNUpoow-23" style="edgeStyle=orthogonalEdgeStyle;rounded=0;orthogonalLoop=1;jettySize=auto;html=1;exitX=0.5;exitY=1;exitDx=0;exitDy=0;entryX=0.5;entryY=0;entryDx=0;entryDy=0;fontSize=18;" edge="1" parent="1" source="Y69mmydfdGmCzMNUpoow-11" target="Y69mmydfdGmCzMNUpoow-13">
          <mxGeometry relative="1" as="geometry" />
        </mxCell>
        <mxCell id="Y69mmydfdGmCzMNUpoow-11" value="Calculate BA Specific Hours" style="rounded=1;whiteSpace=wrap;html=1;absoluteArcSize=1;arcSize=14;strokeWidth=2;fontSize=18;" vertex="1" parent="1">
          <mxGeometry x="875" y="263" width="100" height="100" as="geometry" />
        </mxCell>
        <mxCell id="Y69mmydfdGmCzMNUpoow-22" value="End" style="strokeWidth=2;html=1;shape=mxgraph.flowchart.start_1;whiteSpace=wrap;fontSize=18;" vertex="1" parent="1">
          <mxGeometry x="910" y="623" width="100" height="60" as="geometry" />
        </mxCell>
      </root>
    </mxGraphModel>
  </diagram>
</mxfile>
